<mxfile host="app.diagrams.net" modified="2021-11-13T01:17:02.253Z" agent="5.0 (Windows)" etag="VEWWhBO5I40_YizlDKtS" version="15.7.3" type="github">
  <diagram id="MhQ6MoPIf6YcYvvXalyq" name="Page-1">
    <mxGraphModel dx="2231" dy="3514" grid="1" gridSize="10" guides="1" tooltips="1" connect="1" arrows="1" fold="1" page="1" pageScale="1" pageWidth="850" pageHeight="1100" math="0" shadow="0">
      <root>
        <mxCell id="0" />
        <mxCell id="1" parent="0" />
        <mxCell id="FEUUiq3USUO1p5YkliIN-247" style="edgeStyle=orthogonalEdgeStyle;rounded=0;orthogonalLoop=1;jettySize=auto;html=1;exitX=0.5;exitY=0;exitDx=0;exitDy=0;entryX=0;entryY=0.5;entryDx=0;entryDy=0;fontSize=14;" edge="1" parent="1" source="FEUUiq3USUO1p5YkliIN-1" target="FEUUiq3USUO1p5YkliIN-207">
          <mxGeometry relative="1" as="geometry" />
        </mxCell>
        <UserObject label="" lucidchartObjectId="CQIq_j-HFoTX" id="FEUUiq3USUO1p5YkliIN-1">
          <mxCell style="html=1;overflow=block;blockSpacing=1;whiteSpace=wrap;;whiteSpace=wrap;fontSize=13;spacing=3.8;strokeColor=#5e5e5e;strokeOpacity=100;rounded=1;absoluteArcSize=1;arcSize=9;strokeWidth=2.3;" vertex="1" parent="1">
            <mxGeometry x="150" y="45" width="330" height="435" as="geometry" />
          </mxCell>
        </UserObject>
        <UserObject label="Account" lucidchartObjectId="VQIqj8DL6Em9" id="FEUUiq3USUO1p5YkliIN-2">
          <mxCell style="html=1;overflow=block;blockSpacing=1;whiteSpace=wrap;;whiteSpace=wrap;fontSize=16.7;fontColor=#333333;spacing=9;strokeColor=#5e5e5e;strokeOpacity=100;rounded=1;absoluteArcSize=1;arcSize=9;strokeWidth=2.3;" vertex="1" parent="1">
            <mxGeometry x="165" y="60" width="300" height="45" as="geometry" />
          </mxCell>
        </UserObject>
        <mxCell id="FEUUiq3USUO1p5YkliIN-144" style="edgeStyle=orthogonalEdgeStyle;rounded=0;orthogonalLoop=1;jettySize=auto;html=1;exitX=1;exitY=0.5;exitDx=0;exitDy=0;entryX=0;entryY=0.5;entryDx=0;entryDy=0;" edge="1" parent="1" source="FEUUiq3USUO1p5YkliIN-3" target="FEUUiq3USUO1p5YkliIN-140">
          <mxGeometry relative="1" as="geometry" />
        </mxCell>
        <UserObject label="People" lucidchartObjectId="-QIqrhCdOPAu" id="FEUUiq3USUO1p5YkliIN-3">
          <mxCell style="html=1;overflow=block;blockSpacing=1;whiteSpace=wrap;;whiteSpace=wrap;fontSize=16.7;fontColor=#333333;spacing=9;strokeColor=#5e5e5e;strokeOpacity=100;rounded=1;absoluteArcSize=1;arcSize=9;strokeWidth=2.3;" vertex="1" parent="1">
            <mxGeometry x="165" y="120" width="300" height="150" as="geometry" />
          </mxCell>
        </UserObject>
        <UserObject label="Notes" lucidchartObjectId="eRIqOaFJ6sIR" id="FEUUiq3USUO1p5YkliIN-4">
          <mxCell style="html=1;overflow=block;blockSpacing=1;whiteSpace=wrap;;whiteSpace=wrap;fontSize=16.7;fontColor=#333333;spacing=9;strokeColor=#5e5e5e;strokeOpacity=100;rounded=1;absoluteArcSize=1;arcSize=9;strokeWidth=2.3;" vertex="1" parent="1">
            <mxGeometry x="165" y="285" width="300" height="150" as="geometry" />
          </mxCell>
        </UserObject>
        <UserObject label="" lucidchartObjectId="8RIq1ZBvP-~G" id="FEUUiq3USUO1p5YkliIN-5">
          <mxCell style="html=1;overflow=block;blockSpacing=1;whiteSpace=wrap;;whiteSpace=wrap;fontSize=13;spacing=3.8;strokeColor=#5e5e5e;strokeOpacity=100;rounded=1;absoluteArcSize=1;arcSize=9;strokeWidth=2.3;" vertex="1" parent="1">
            <mxGeometry x="630" y="575" width="330" height="435" as="geometry" />
          </mxCell>
        </UserObject>
        <UserObject label="View Notes" lucidchartObjectId="cSIqgZA5jLlp" id="FEUUiq3USUO1p5YkliIN-6">
          <mxCell style="html=1;overflow=block;blockSpacing=1;whiteSpace=wrap;;whiteSpace=wrap;fontSize=16.7;fontColor=#333333;spacing=9;strokeColor=#5e5e5e;strokeOpacity=100;rounded=1;absoluteArcSize=1;arcSize=9;strokeWidth=2.3;" vertex="1" parent="1">
            <mxGeometry x="645" y="635" width="300" height="165" as="geometry" />
          </mxCell>
        </UserObject>
        <UserObject label="New Note" lucidchartObjectId="hSIql9Fksf9N" id="FEUUiq3USUO1p5YkliIN-7">
          <mxCell style="html=1;overflow=block;blockSpacing=1;whiteSpace=wrap;;whiteSpace=wrap;fontSize=16.7;fontColor=#333333;spacing=9;strokeColor=#5e5e5e;strokeOpacity=100;rounded=1;absoluteArcSize=1;arcSize=9;strokeWidth=2.3;" vertex="1" parent="1">
            <mxGeometry x="645" y="815" width="300" height="180" as="geometry" />
          </mxCell>
        </UserObject>
        <UserObject label="" lucidchartObjectId="ESIq_eZUDLwN" id="FEUUiq3USUO1p5YkliIN-8">
          <mxCell style="html=1;overflow=block;blockSpacing=1;whiteSpace=wrap;;whiteSpace=wrap;fontSize=13;spacing=3.8;strokeColor=#5e5e5e;strokeOpacity=100;rounded=1;absoluteArcSize=1;arcSize=9;strokeWidth=2.3;" vertex="1" parent="1">
            <mxGeometry x="1080" y="845" width="330" height="435" as="geometry" />
          </mxCell>
        </UserObject>
        <UserObject label="" lucidchartObjectId="ESIqFr9YmMY0" id="FEUUiq3USUO1p5YkliIN-9">
          <mxCell style="html=1;overflow=block;blockSpacing=1;whiteSpace=wrap;;whiteSpace=wrap;fontSize=13;spacing=9;strokeColor=#5e5e5e;strokeOpacity=100;rounded=1;absoluteArcSize=1;arcSize=9;strokeWidth=2.3;" vertex="1" parent="1">
            <mxGeometry x="1110" y="920" width="285" height="75" as="geometry" />
          </mxCell>
        </UserObject>
        <UserObject label="Title" lucidchartObjectId="8SIq4l0T7j84" id="FEUUiq3USUO1p5YkliIN-10">
          <mxCell style="html=1;overflow=block;blockSpacing=1;whiteSpace=wrap;;whiteSpace=wrap;fontSize=16.7;fontColor=#333333;spacing=9;strokeColor=#5e5e5e;strokeOpacity=100;rounded=1;absoluteArcSize=1;arcSize=9;strokeWidth=2.3;" vertex="1" parent="1">
            <mxGeometry x="1125" y="935" width="120" height="45" as="geometry" />
          </mxCell>
        </UserObject>
        <UserObject label="Test note" lucidchartObjectId="tTIqfgRsAI3f" id="FEUUiq3USUO1p5YkliIN-11">
          <mxCell style="html=1;overflow=block;blockSpacing=1;whiteSpace=wrap;;whiteSpace=wrap;fontSize=16.7;fontColor=#333333;spacing=9;strokeColor=#5e5e5e;strokeOpacity=100;rounded=1;absoluteArcSize=1;arcSize=9;strokeWidth=2.3;" vertex="1" parent="1">
            <mxGeometry x="1260" y="935" width="120" height="45" as="geometry" />
          </mxCell>
        </UserObject>
        <UserObject label="" lucidchartObjectId="ETIqiWUAqCY5" id="FEUUiq3USUO1p5YkliIN-12">
          <mxCell style="html=1;overflow=block;blockSpacing=1;whiteSpace=wrap;;whiteSpace=wrap;fontSize=13;spacing=9;strokeColor=#5e5e5e;strokeOpacity=100;rounded=1;absoluteArcSize=1;arcSize=9;strokeWidth=2.3;" vertex="1" parent="1">
            <mxGeometry x="1110" y="1010" width="285" height="75" as="geometry" />
          </mxCell>
        </UserObject>
        <UserObject label="Field 2" lucidchartObjectId="ETIqhFL-e.r7" id="FEUUiq3USUO1p5YkliIN-13">
          <mxCell style="html=1;overflow=block;blockSpacing=1;whiteSpace=wrap;;whiteSpace=wrap;fontSize=16.7;fontColor=#333333;spacing=9;strokeColor=#5e5e5e;strokeOpacity=100;rounded=1;absoluteArcSize=1;arcSize=9;strokeWidth=2.3;" vertex="1" parent="1">
            <mxGeometry x="1125" y="1025" width="120" height="45" as="geometry" />
          </mxCell>
        </UserObject>
        <UserObject label="Value 2" lucidchartObjectId="ETIq~WkDuuwT" id="FEUUiq3USUO1p5YkliIN-14">
          <mxCell style="html=1;overflow=block;blockSpacing=1;whiteSpace=wrap;;whiteSpace=wrap;fontSize=16.7;fontColor=#333333;spacing=9;strokeColor=#5e5e5e;strokeOpacity=100;rounded=1;absoluteArcSize=1;arcSize=9;strokeWidth=2.3;" vertex="1" parent="1">
            <mxGeometry x="1260" y="1025" width="120" height="45" as="geometry" />
          </mxCell>
        </UserObject>
        <UserObject label="" lucidchartObjectId="ITIqLfx8_5xD" id="FEUUiq3USUO1p5YkliIN-15">
          <mxCell style="html=1;overflow=block;blockSpacing=1;whiteSpace=wrap;;whiteSpace=wrap;fontSize=13;spacing=9;strokeColor=#5e5e5e;strokeOpacity=100;rounded=1;absoluteArcSize=1;arcSize=9;strokeWidth=2.3;" vertex="1" parent="1">
            <mxGeometry x="1110" y="1100" width="285" height="75" as="geometry" />
          </mxCell>
        </UserObject>
        <UserObject label="Field 3" lucidchartObjectId="ITIq5LJrwGgR" id="FEUUiq3USUO1p5YkliIN-16">
          <mxCell style="html=1;overflow=block;blockSpacing=1;whiteSpace=wrap;;whiteSpace=wrap;fontSize=16.7;fontColor=#333333;spacing=9;strokeColor=#5e5e5e;strokeOpacity=100;rounded=1;absoluteArcSize=1;arcSize=9;strokeWidth=2.3;" vertex="1" parent="1">
            <mxGeometry x="1125" y="1115" width="120" height="45" as="geometry" />
          </mxCell>
        </UserObject>
        <UserObject label="Value 3" lucidchartObjectId="ITIq6kOWOqnD" id="FEUUiq3USUO1p5YkliIN-17">
          <mxCell style="html=1;overflow=block;blockSpacing=1;whiteSpace=wrap;;whiteSpace=wrap;fontSize=16.7;fontColor=#333333;spacing=9;strokeColor=#5e5e5e;strokeOpacity=100;rounded=1;absoluteArcSize=1;arcSize=9;strokeWidth=2.3;" vertex="1" parent="1">
            <mxGeometry x="1260" y="1115" width="120" height="45" as="geometry" />
          </mxCell>
        </UserObject>
        <UserObject label="" lucidchartObjectId="8TIqcVxO-mso" id="FEUUiq3USUO1p5YkliIN-18">
          <mxCell style="html=1;overflow=block;blockSpacing=1;whiteSpace=wrap;;whiteSpace=wrap;fontSize=13;spacing=9;strokeColor=#5e5e5e;strokeOpacity=100;rounded=1;absoluteArcSize=1;arcSize=9;strokeWidth=2.3;" vertex="1" parent="1">
            <mxGeometry x="1110" y="1190" width="285" height="75" as="geometry" />
          </mxCell>
        </UserObject>
        <UserObject label="Field 4" lucidchartObjectId="8TIqC6iCCslU" id="FEUUiq3USUO1p5YkliIN-19">
          <mxCell style="html=1;overflow=block;blockSpacing=1;whiteSpace=wrap;;whiteSpace=wrap;fontSize=16.7;fontColor=#333333;spacing=9;strokeColor=#5e5e5e;strokeOpacity=100;rounded=1;absoluteArcSize=1;arcSize=9;strokeWidth=2.3;" vertex="1" parent="1">
            <mxGeometry x="1125" y="1205" width="120" height="45" as="geometry" />
          </mxCell>
        </UserObject>
        <UserObject label="Value 4" lucidchartObjectId="8TIqFEs-h4l7" id="FEUUiq3USUO1p5YkliIN-20">
          <mxCell style="html=1;overflow=block;blockSpacing=1;whiteSpace=wrap;;whiteSpace=wrap;fontSize=16.7;fontColor=#333333;spacing=9;strokeColor=#5e5e5e;strokeOpacity=100;rounded=1;absoluteArcSize=1;arcSize=9;strokeWidth=2.3;" vertex="1" parent="1">
            <mxGeometry x="1260" y="1205" width="120" height="45" as="geometry" />
          </mxCell>
        </UserObject>
        <mxCell id="FEUUiq3USUO1p5YkliIN-21" value="" style="shape=singleArrow;arrowWidth=0.5;arrowSize=0.225;whiteSpace=wrap;fontSize=13;spacing=3.8;strokeColor=#5e5e5e;strokeOpacity=100;rounded=1;absoluteArcSize=1;arcSize=9;rotation=180;strokeWidth=2.3;html=1;" vertex="1" parent="1">
          <mxGeometry x="645" y="590" width="60" height="30" as="geometry" />
        </mxCell>
        <mxCell id="FEUUiq3USUO1p5YkliIN-22" value="" style="shape=singleArrow;arrowWidth=0.5;arrowSize=0.225;whiteSpace=wrap;fontSize=13;spacing=3.8;strokeColor=#5e5e5e;strokeOpacity=100;rounded=1;absoluteArcSize=1;arcSize=9;rotation=180;strokeWidth=2.3;html=1;" vertex="1" parent="1">
          <mxGeometry x="1095" y="860" width="60" height="30" as="geometry" />
        </mxCell>
        <UserObject label="Submit" lucidchartObjectId="SWIqaM8mSJSL" id="FEUUiq3USUO1p5YkliIN-23">
          <mxCell style="html=1;overflow=block;blockSpacing=1;whiteSpace=wrap;;whiteSpace=wrap;fontSize=16.7;fontColor=#333333;spacing=9;strokeColor=#5e5e5e;strokeOpacity=100;rounded=1;absoluteArcSize=1;arcSize=9;strokeWidth=2.3;" vertex="1" parent="1">
            <mxGeometry x="1245" y="860" width="150" height="45" as="geometry" />
          </mxCell>
        </UserObject>
        <UserObject label="" lucidchartObjectId="JYIqImSIxyel" id="FEUUiq3USUO1p5YkliIN-24">
          <mxCell style="html=1;overflow=block;blockSpacing=1;whiteSpace=wrap;;whiteSpace=wrap;fontSize=13;spacing=3.8;strokeColor=#5e5e5e;strokeOpacity=100;rounded=1;absoluteArcSize=1;arcSize=9;strokeWidth=2.3;" vertex="1" parent="1">
            <mxGeometry x="1080" y="350" width="330" height="435" as="geometry" />
          </mxCell>
        </UserObject>
        <UserObject label="" lucidchartObjectId="JYIqmsGyTYTR" id="FEUUiq3USUO1p5YkliIN-25">
          <mxCell style="html=1;overflow=block;blockSpacing=1;whiteSpace=wrap;;whiteSpace=wrap;fontSize=13;spacing=9;strokeColor=#5e5e5e;strokeOpacity=100;rounded=1;absoluteArcSize=1;arcSize=9;strokeWidth=2.3;" vertex="1" parent="1">
            <mxGeometry x="1110" y="425" width="285" height="75" as="geometry" />
          </mxCell>
        </UserObject>
        <UserObject label="Note 1" lucidchartObjectId="JYIq-rKO5udx" id="FEUUiq3USUO1p5YkliIN-26">
          <mxCell style="html=1;overflow=block;blockSpacing=1;whiteSpace=wrap;;whiteSpace=wrap;fontSize=16.7;fontColor=#333333;spacing=9;strokeColor=#5e5e5e;strokeOpacity=100;rounded=1;absoluteArcSize=1;arcSize=9;strokeWidth=2.3;" vertex="1" parent="1">
            <mxGeometry x="1125" y="440" width="120" height="45" as="geometry" />
          </mxCell>
        </UserObject>
        <UserObject label="View" lucidchartObjectId="JYIq1clX5wpW" id="FEUUiq3USUO1p5YkliIN-27">
          <mxCell style="html=1;overflow=block;blockSpacing=1;whiteSpace=wrap;;whiteSpace=wrap;fontSize=16.7;fontColor=#333333;spacing=9;strokeColor=#5e5e5e;strokeOpacity=100;rounded=1;absoluteArcSize=1;arcSize=9;strokeWidth=2.3;" vertex="1" parent="1">
            <mxGeometry x="1260" y="440" width="120" height="45" as="geometry" />
          </mxCell>
        </UserObject>
        <UserObject label="" lucidchartObjectId="JYIqQUZs7ALy" id="FEUUiq3USUO1p5YkliIN-28">
          <mxCell style="html=1;overflow=block;blockSpacing=1;whiteSpace=wrap;;whiteSpace=wrap;fontSize=13;spacing=9;strokeColor=#5e5e5e;strokeOpacity=100;rounded=1;absoluteArcSize=1;arcSize=9;strokeWidth=2.3;" vertex="1" parent="1">
            <mxGeometry x="1110" y="515" width="285" height="75" as="geometry" />
          </mxCell>
        </UserObject>
        <UserObject label="Note 2" lucidchartObjectId="JYIqrLPb~m38" id="FEUUiq3USUO1p5YkliIN-29">
          <mxCell style="html=1;overflow=block;blockSpacing=1;whiteSpace=wrap;;whiteSpace=wrap;fontSize=16.7;fontColor=#333333;spacing=9;strokeColor=#5e5e5e;strokeOpacity=100;rounded=1;absoluteArcSize=1;arcSize=9;strokeWidth=2.3;" vertex="1" parent="1">
            <mxGeometry x="1125" y="530" width="120" height="45" as="geometry" />
          </mxCell>
        </UserObject>
        <UserObject label="View" lucidchartObjectId="JYIqg7qXGhC_" id="FEUUiq3USUO1p5YkliIN-30">
          <mxCell style="html=1;overflow=block;blockSpacing=1;whiteSpace=wrap;;whiteSpace=wrap;fontSize=16.7;fontColor=#333333;spacing=9;strokeColor=#5e5e5e;strokeOpacity=100;rounded=1;absoluteArcSize=1;arcSize=9;strokeWidth=2.3;" vertex="1" parent="1">
            <mxGeometry x="1260" y="530" width="120" height="45" as="geometry" />
          </mxCell>
        </UserObject>
        <UserObject label="" lucidchartObjectId="JYIqgXZHd~-3" id="FEUUiq3USUO1p5YkliIN-31">
          <mxCell style="html=1;overflow=block;blockSpacing=1;whiteSpace=wrap;;whiteSpace=wrap;fontSize=13;spacing=9;strokeColor=#5e5e5e;strokeOpacity=100;rounded=1;absoluteArcSize=1;arcSize=9;strokeWidth=2.3;" vertex="1" parent="1">
            <mxGeometry x="1110" y="605" width="285" height="75" as="geometry" />
          </mxCell>
        </UserObject>
        <UserObject label="Note 3" lucidchartObjectId="JYIq63LU4q4L" id="FEUUiq3USUO1p5YkliIN-32">
          <mxCell style="html=1;overflow=block;blockSpacing=1;whiteSpace=wrap;;whiteSpace=wrap;fontSize=16.7;fontColor=#333333;spacing=9;strokeColor=#5e5e5e;strokeOpacity=100;rounded=1;absoluteArcSize=1;arcSize=9;strokeWidth=2.3;" vertex="1" parent="1">
            <mxGeometry x="1125" y="620" width="120" height="45" as="geometry" />
          </mxCell>
        </UserObject>
        <UserObject label="View" lucidchartObjectId="JYIqBV~_6mQu" id="FEUUiq3USUO1p5YkliIN-33">
          <mxCell style="html=1;overflow=block;blockSpacing=1;whiteSpace=wrap;;whiteSpace=wrap;fontSize=16.7;fontColor=#333333;spacing=9;strokeColor=#5e5e5e;strokeOpacity=100;rounded=1;absoluteArcSize=1;arcSize=9;strokeWidth=2.3;" vertex="1" parent="1">
            <mxGeometry x="1260" y="620" width="120" height="45" as="geometry" />
          </mxCell>
        </UserObject>
        <UserObject label="" lucidchartObjectId="JYIqWBAA1-ck" id="FEUUiq3USUO1p5YkliIN-34">
          <mxCell style="html=1;overflow=block;blockSpacing=1;whiteSpace=wrap;;whiteSpace=wrap;fontSize=13;spacing=9;strokeColor=#5e5e5e;strokeOpacity=100;rounded=1;absoluteArcSize=1;arcSize=9;strokeWidth=2.3;" vertex="1" parent="1">
            <mxGeometry x="1110" y="695" width="285" height="75" as="geometry" />
          </mxCell>
        </UserObject>
        <UserObject label="Note 4" lucidchartObjectId="JYIqxw.okeaf" id="FEUUiq3USUO1p5YkliIN-35">
          <mxCell style="html=1;overflow=block;blockSpacing=1;whiteSpace=wrap;;whiteSpace=wrap;fontSize=16.7;fontColor=#333333;spacing=9;strokeColor=#5e5e5e;strokeOpacity=100;rounded=1;absoluteArcSize=1;arcSize=9;strokeWidth=2.3;" vertex="1" parent="1">
            <mxGeometry x="1125" y="710" width="120" height="45" as="geometry" />
          </mxCell>
        </UserObject>
        <UserObject label="View" lucidchartObjectId="JYIq4gRYHf0a" id="FEUUiq3USUO1p5YkliIN-36">
          <mxCell style="html=1;overflow=block;blockSpacing=1;whiteSpace=wrap;;whiteSpace=wrap;fontSize=16.7;fontColor=#333333;spacing=9;strokeColor=#5e5e5e;strokeOpacity=100;rounded=1;absoluteArcSize=1;arcSize=9;strokeWidth=2.3;" vertex="1" parent="1">
            <mxGeometry x="1260" y="710" width="120" height="45" as="geometry" />
          </mxCell>
        </UserObject>
        <mxCell id="FEUUiq3USUO1p5YkliIN-37" value="" style="shape=singleArrow;arrowWidth=0.5;arrowSize=0.225;whiteSpace=wrap;fontSize=13;spacing=3.8;strokeColor=#5e5e5e;strokeOpacity=100;rounded=1;absoluteArcSize=1;arcSize=9;rotation=180;strokeWidth=2.3;html=1;" vertex="1" parent="1">
          <mxGeometry x="1095" y="365" width="60" height="30" as="geometry" />
        </mxCell>
        <UserObject label="Filter" lucidchartObjectId="JYIqrRlLzmnx" id="FEUUiq3USUO1p5YkliIN-38">
          <mxCell style="html=1;overflow=block;blockSpacing=1;whiteSpace=wrap;;whiteSpace=wrap;fontSize=16.7;fontColor=#333333;spacing=9;strokeColor=#5e5e5e;strokeOpacity=100;rounded=1;absoluteArcSize=1;arcSize=9;strokeWidth=2.3;" vertex="1" parent="1">
            <mxGeometry x="1245" y="365" width="150" height="45" as="geometry" />
          </mxCell>
        </UserObject>
        <UserObject label="" lucidchartObjectId="H0Iqizq-gxlO" id="FEUUiq3USUO1p5YkliIN-39">
          <mxCell style="html=1;jettySize=18;whiteSpace=wrap;fontSize=13;strokeColor=#5E5E5E;strokeWidth=1.5;rounded=1;arcSize=12;edgeStyle=orthogonalEdgeStyle;startArrow=none;;endArrow=block;endFill=1;;exitX=1.004;exitY=0.5;exitPerimeter=0;entryX=-0.003;entryY=0.478;entryPerimeter=0;" edge="1" parent="1" source="FEUUiq3USUO1p5YkliIN-4" target="FEUUiq3USUO1p5YkliIN-5">
            <mxGeometry width="100" height="100" relative="1" as="geometry">
              <Array as="points" />
            </mxGeometry>
          </mxCell>
        </UserObject>
        <UserObject label="" lucidchartObjectId="L0IqKNF~5mgh" id="FEUUiq3USUO1p5YkliIN-40">
          <mxCell style="html=1;jettySize=18;whiteSpace=wrap;fontSize=13;strokeColor=#5E5E5E;strokeWidth=1.5;rounded=1;arcSize=12;edgeStyle=orthogonalEdgeStyle;startArrow=none;;endArrow=block;endFill=1;;exitX=1.004;exitY=0.5;exitPerimeter=0;entryX=-0.003;entryY=0.5;entryPerimeter=0;" edge="1" parent="1" source="FEUUiq3USUO1p5YkliIN-6" target="FEUUiq3USUO1p5YkliIN-24">
            <mxGeometry width="100" height="100" relative="1" as="geometry">
              <Array as="points" />
            </mxGeometry>
          </mxCell>
        </UserObject>
        <UserObject label="" lucidchartObjectId="P0Iq2~FqOxFh" id="FEUUiq3USUO1p5YkliIN-41">
          <mxCell style="html=1;jettySize=18;whiteSpace=wrap;fontSize=13;strokeColor=#5E5E5E;strokeWidth=1.5;rounded=1;arcSize=12;edgeStyle=orthogonalEdgeStyle;startArrow=none;;endArrow=block;endFill=1;;exitX=1.004;exitY=0.5;exitPerimeter=0;entryX=-0.003;entryY=0.5;entryPerimeter=0;" edge="1" parent="1" source="FEUUiq3USUO1p5YkliIN-7" target="FEUUiq3USUO1p5YkliIN-8">
            <mxGeometry width="100" height="100" relative="1" as="geometry">
              <Array as="points" />
            </mxGeometry>
          </mxCell>
        </UserObject>
        <UserObject label="" lucidchartObjectId="I2IqFRbsAXoO" id="FEUUiq3USUO1p5YkliIN-42">
          <mxCell style="html=1;jettySize=18;whiteSpace=wrap;fontSize=13;strokeColor=#5E5E5E;strokeWidth=1.5;rounded=1;arcSize=12;edgeStyle=orthogonalEdgeStyle;startArrow=none;;endArrow=block;endFill=1;;exitX=1.009;exitY=0.5;exitPerimeter=0;entryX=-0.003;entryY=0.5;entryPerimeter=0;" edge="1" parent="1" source="FEUUiq3USUO1p5YkliIN-27" target="FEUUiq3USUO1p5YkliIN-43">
            <mxGeometry width="100" height="100" relative="1" as="geometry">
              <Array as="points" />
            </mxGeometry>
          </mxCell>
        </UserObject>
        <UserObject label="" lucidchartObjectId="e3Iq8I_mUfGt" id="FEUUiq3USUO1p5YkliIN-43">
          <mxCell style="html=1;overflow=block;blockSpacing=1;whiteSpace=wrap;;whiteSpace=wrap;fontSize=13;spacing=3.8;strokeColor=#5e5e5e;strokeOpacity=100;rounded=1;absoluteArcSize=1;arcSize=9;strokeWidth=2.3;" vertex="1" parent="1">
            <mxGeometry x="1591" y="200" width="330" height="435" as="geometry" />
          </mxCell>
        </UserObject>
        <UserObject label="" lucidchartObjectId="e3IqJPeS-deE" id="FEUUiq3USUO1p5YkliIN-44">
          <mxCell style="html=1;overflow=block;blockSpacing=1;whiteSpace=wrap;;whiteSpace=wrap;fontSize=13;spacing=9;strokeColor=#5e5e5e;strokeOpacity=100;rounded=1;absoluteArcSize=1;arcSize=9;strokeWidth=2.3;" vertex="1" parent="1">
            <mxGeometry x="1621" y="275" width="285" height="75" as="geometry" />
          </mxCell>
        </UserObject>
        <UserObject label="Title" lucidchartObjectId="e3Iqku~zvZEh" id="FEUUiq3USUO1p5YkliIN-45">
          <mxCell style="html=1;overflow=block;blockSpacing=1;whiteSpace=wrap;;whiteSpace=wrap;fontSize=16.7;fontColor=#333333;spacing=9;strokeColor=#5e5e5e;strokeOpacity=100;rounded=1;absoluteArcSize=1;arcSize=9;strokeWidth=2.3;" vertex="1" parent="1">
            <mxGeometry x="1636" y="290" width="120" height="45" as="geometry" />
          </mxCell>
        </UserObject>
        <UserObject label="Test note" lucidchartObjectId="e3IqkLCIElOL" id="FEUUiq3USUO1p5YkliIN-46">
          <mxCell style="html=1;overflow=block;blockSpacing=1;whiteSpace=wrap;;whiteSpace=wrap;fontSize=16.7;fontColor=#333333;spacing=9;strokeColor=#5e5e5e;strokeOpacity=100;rounded=1;absoluteArcSize=1;arcSize=9;strokeWidth=2.3;" vertex="1" parent="1">
            <mxGeometry x="1771" y="290" width="120" height="45" as="geometry" />
          </mxCell>
        </UserObject>
        <UserObject label="" lucidchartObjectId="e3Iq-X9TQTS." id="FEUUiq3USUO1p5YkliIN-47">
          <mxCell style="html=1;overflow=block;blockSpacing=1;whiteSpace=wrap;;whiteSpace=wrap;fontSize=13;spacing=9;strokeColor=#5e5e5e;strokeOpacity=100;rounded=1;absoluteArcSize=1;arcSize=9;strokeWidth=2.3;" vertex="1" parent="1">
            <mxGeometry x="1621" y="365" width="285" height="75" as="geometry" />
          </mxCell>
        </UserObject>
        <UserObject label="Field 2" lucidchartObjectId="e3Iq2TEdJb28" id="FEUUiq3USUO1p5YkliIN-48">
          <mxCell style="html=1;overflow=block;blockSpacing=1;whiteSpace=wrap;;whiteSpace=wrap;fontSize=16.7;fontColor=#333333;spacing=9;strokeColor=#5e5e5e;strokeOpacity=100;rounded=1;absoluteArcSize=1;arcSize=9;strokeWidth=2.3;" vertex="1" parent="1">
            <mxGeometry x="1636" y="380" width="120" height="45" as="geometry" />
          </mxCell>
        </UserObject>
        <UserObject label="Value 2" lucidchartObjectId="e3IqHP9_b.FM" id="FEUUiq3USUO1p5YkliIN-49">
          <mxCell style="html=1;overflow=block;blockSpacing=1;whiteSpace=wrap;;whiteSpace=wrap;fontSize=16.7;fontColor=#333333;spacing=9;strokeColor=#5e5e5e;strokeOpacity=100;rounded=1;absoluteArcSize=1;arcSize=9;strokeWidth=2.3;" vertex="1" parent="1">
            <mxGeometry x="1771" y="380" width="120" height="45" as="geometry" />
          </mxCell>
        </UserObject>
        <UserObject label="" lucidchartObjectId="e3IqvEsaxpAm" id="FEUUiq3USUO1p5YkliIN-50">
          <mxCell style="html=1;overflow=block;blockSpacing=1;whiteSpace=wrap;;whiteSpace=wrap;fontSize=13;spacing=9;strokeColor=#5e5e5e;strokeOpacity=100;rounded=1;absoluteArcSize=1;arcSize=9;strokeWidth=2.3;" vertex="1" parent="1">
            <mxGeometry x="1621" y="455" width="285" height="75" as="geometry" />
          </mxCell>
        </UserObject>
        <UserObject label="Field 3" lucidchartObjectId="e3IqMT8-9cf5" id="FEUUiq3USUO1p5YkliIN-51">
          <mxCell style="html=1;overflow=block;blockSpacing=1;whiteSpace=wrap;;whiteSpace=wrap;fontSize=16.7;fontColor=#333333;spacing=9;strokeColor=#5e5e5e;strokeOpacity=100;rounded=1;absoluteArcSize=1;arcSize=9;strokeWidth=2.3;" vertex="1" parent="1">
            <mxGeometry x="1636" y="470" width="120" height="45" as="geometry" />
          </mxCell>
        </UserObject>
        <UserObject label="Value 3" lucidchartObjectId="e3Iqp-~qEavo" id="FEUUiq3USUO1p5YkliIN-52">
          <mxCell style="html=1;overflow=block;blockSpacing=1;whiteSpace=wrap;;whiteSpace=wrap;fontSize=16.7;fontColor=#333333;spacing=9;strokeColor=#5e5e5e;strokeOpacity=100;rounded=1;absoluteArcSize=1;arcSize=9;strokeWidth=2.3;" vertex="1" parent="1">
            <mxGeometry x="1771" y="470" width="120" height="45" as="geometry" />
          </mxCell>
        </UserObject>
        <UserObject label="" lucidchartObjectId="e3Iq-xhDcQ62" id="FEUUiq3USUO1p5YkliIN-53">
          <mxCell style="html=1;overflow=block;blockSpacing=1;whiteSpace=wrap;;whiteSpace=wrap;fontSize=13;spacing=9;strokeColor=#5e5e5e;strokeOpacity=100;rounded=1;absoluteArcSize=1;arcSize=9;strokeWidth=2.3;" vertex="1" parent="1">
            <mxGeometry x="1621" y="545" width="285" height="75" as="geometry" />
          </mxCell>
        </UserObject>
        <UserObject label="Field 4" lucidchartObjectId="e3Iqs8mC.Bks" id="FEUUiq3USUO1p5YkliIN-54">
          <mxCell style="html=1;overflow=block;blockSpacing=1;whiteSpace=wrap;;whiteSpace=wrap;fontSize=16.7;fontColor=#333333;spacing=9;strokeColor=#5e5e5e;strokeOpacity=100;rounded=1;absoluteArcSize=1;arcSize=9;strokeWidth=2.3;" vertex="1" parent="1">
            <mxGeometry x="1636" y="560" width="120" height="45" as="geometry" />
          </mxCell>
        </UserObject>
        <UserObject label="Value 4" lucidchartObjectId="e3Iqq5lsQZ12" id="FEUUiq3USUO1p5YkliIN-55">
          <mxCell style="html=1;overflow=block;blockSpacing=1;whiteSpace=wrap;;whiteSpace=wrap;fontSize=16.7;fontColor=#333333;spacing=9;strokeColor=#5e5e5e;strokeOpacity=100;rounded=1;absoluteArcSize=1;arcSize=9;strokeWidth=2.3;" vertex="1" parent="1">
            <mxGeometry x="1771" y="560" width="120" height="45" as="geometry" />
          </mxCell>
        </UserObject>
        <mxCell id="FEUUiq3USUO1p5YkliIN-56" value="" style="shape=singleArrow;arrowWidth=0.5;arrowSize=0.225;whiteSpace=wrap;fontSize=13;spacing=3.8;strokeColor=#5e5e5e;strokeOpacity=100;rounded=1;absoluteArcSize=1;arcSize=9;rotation=180;strokeWidth=2.3;html=1;" vertex="1" parent="1">
          <mxGeometry x="1606" y="215" width="60" height="30" as="geometry" />
        </mxCell>
        <UserObject label="" lucidchartObjectId="8RIq1ZBvP-~G" id="FEUUiq3USUO1p5YkliIN-140">
          <mxCell style="html=1;overflow=block;blockSpacing=1;whiteSpace=wrap;;whiteSpace=wrap;fontSize=13;spacing=3.8;strokeColor=#5e5e5e;strokeOpacity=100;rounded=1;absoluteArcSize=1;arcSize=9;strokeWidth=2.3;" vertex="1" parent="1">
            <mxGeometry x="630" y="-490" width="330" height="435" as="geometry" />
          </mxCell>
        </UserObject>
        <mxCell id="FEUUiq3USUO1p5YkliIN-198" style="edgeStyle=orthogonalEdgeStyle;rounded=0;orthogonalLoop=1;jettySize=auto;html=1;exitX=1;exitY=0.5;exitDx=0;exitDy=0;entryX=0;entryY=0.5;entryDx=0;entryDy=0;" edge="1" parent="1" source="FEUUiq3USUO1p5YkliIN-141" target="FEUUiq3USUO1p5YkliIN-147">
          <mxGeometry relative="1" as="geometry" />
        </mxCell>
        <UserObject label="Clients" lucidchartObjectId="cSIqgZA5jLlp" id="FEUUiq3USUO1p5YkliIN-141">
          <mxCell style="html=1;overflow=block;blockSpacing=1;whiteSpace=wrap;;whiteSpace=wrap;fontSize=16.7;fontColor=#333333;spacing=9;strokeColor=#5e5e5e;strokeOpacity=100;rounded=1;absoluteArcSize=1;arcSize=9;strokeWidth=2.3;" vertex="1" parent="1">
            <mxGeometry x="645" y="-430" width="300" height="110" as="geometry" />
          </mxCell>
        </UserObject>
        <mxCell id="FEUUiq3USUO1p5YkliIN-143" value="" style="shape=singleArrow;arrowWidth=0.5;arrowSize=0.225;whiteSpace=wrap;fontSize=13;spacing=3.8;strokeColor=#5e5e5e;strokeOpacity=100;rounded=1;absoluteArcSize=1;arcSize=9;rotation=180;strokeWidth=2.3;html=1;" vertex="1" parent="1">
          <mxGeometry x="645" y="-475" width="60" height="30" as="geometry" />
        </mxCell>
        <UserObject label="Employees" lucidchartObjectId="cSIqgZA5jLlp" id="FEUUiq3USUO1p5YkliIN-145">
          <mxCell style="html=1;overflow=block;blockSpacing=1;whiteSpace=wrap;;whiteSpace=wrap;fontSize=16.7;fontColor=#333333;spacing=9;strokeColor=#5e5e5e;strokeOpacity=100;rounded=1;absoluteArcSize=1;arcSize=9;strokeWidth=2.3;" vertex="1" parent="1">
            <mxGeometry x="645" y="-310" width="300" height="110" as="geometry" />
          </mxCell>
        </UserObject>
        <UserObject label="Voluteers" lucidchartObjectId="cSIqgZA5jLlp" id="FEUUiq3USUO1p5YkliIN-146">
          <mxCell style="html=1;overflow=block;blockSpacing=1;whiteSpace=wrap;;whiteSpace=wrap;fontSize=16.7;fontColor=#333333;spacing=9;strokeColor=#5e5e5e;strokeOpacity=100;rounded=1;absoluteArcSize=1;arcSize=9;strokeWidth=2.3;" vertex="1" parent="1">
            <mxGeometry x="645" y="-190" width="300" height="110" as="geometry" />
          </mxCell>
        </UserObject>
        <UserObject label="" lucidchartObjectId="8RIq1ZBvP-~G" id="FEUUiq3USUO1p5YkliIN-147">
          <mxCell style="html=1;overflow=block;blockSpacing=1;whiteSpace=wrap;;whiteSpace=wrap;fontSize=13;spacing=3.8;strokeColor=#5e5e5e;strokeOpacity=100;rounded=1;absoluteArcSize=1;arcSize=9;strokeWidth=2.3;" vertex="1" parent="1">
            <mxGeometry x="1140" y="-660" width="330" height="435" as="geometry" />
          </mxCell>
        </UserObject>
        <mxCell id="FEUUiq3USUO1p5YkliIN-199" style="edgeStyle=orthogonalEdgeStyle;rounded=0;orthogonalLoop=1;jettySize=auto;html=1;exitX=1;exitY=0.5;exitDx=0;exitDy=0;entryX=0;entryY=0.5;entryDx=0;entryDy=0;fontSize=14;" edge="1" parent="1" source="FEUUiq3USUO1p5YkliIN-148" target="FEUUiq3USUO1p5YkliIN-184">
          <mxGeometry relative="1" as="geometry" />
        </mxCell>
        <UserObject label="View Clients" lucidchartObjectId="cSIqgZA5jLlp" id="FEUUiq3USUO1p5YkliIN-148">
          <mxCell style="html=1;overflow=block;blockSpacing=1;whiteSpace=wrap;;whiteSpace=wrap;fontSize=16.7;fontColor=#333333;spacing=9;strokeColor=#5e5e5e;strokeOpacity=100;rounded=1;absoluteArcSize=1;arcSize=9;strokeWidth=2.3;" vertex="1" parent="1">
            <mxGeometry x="1155" y="-600" width="300" height="165" as="geometry" />
          </mxCell>
        </UserObject>
        <UserObject label="New Client" lucidchartObjectId="hSIql9Fksf9N" id="FEUUiq3USUO1p5YkliIN-149">
          <mxCell style="html=1;overflow=block;blockSpacing=1;whiteSpace=wrap;;whiteSpace=wrap;fontSize=16.7;fontColor=#333333;spacing=9;strokeColor=#5e5e5e;strokeOpacity=100;rounded=1;absoluteArcSize=1;arcSize=9;strokeWidth=2.3;" vertex="1" parent="1">
            <mxGeometry x="1155" y="-420" width="300" height="180" as="geometry" />
          </mxCell>
        </UserObject>
        <UserObject label="" lucidchartObjectId="ESIq_eZUDLwN" id="FEUUiq3USUO1p5YkliIN-150">
          <mxCell style="html=1;overflow=block;blockSpacing=1;whiteSpace=wrap;;whiteSpace=wrap;fontSize=13;spacing=3.8;strokeColor=#5e5e5e;strokeOpacity=100;rounded=1;absoluteArcSize=1;arcSize=9;strokeWidth=2.3;" vertex="1" parent="1">
            <mxGeometry x="1590" y="-390" width="330" height="435" as="geometry" />
          </mxCell>
        </UserObject>
        <UserObject label="" lucidchartObjectId="ESIqFr9YmMY0" id="FEUUiq3USUO1p5YkliIN-151">
          <mxCell style="html=1;overflow=block;blockSpacing=1;whiteSpace=wrap;;whiteSpace=wrap;fontSize=13;spacing=9;strokeColor=#5e5e5e;strokeOpacity=100;rounded=1;absoluteArcSize=1;arcSize=9;strokeWidth=2.3;" vertex="1" parent="1">
            <mxGeometry x="1620" y="-315" width="285" height="75" as="geometry" />
          </mxCell>
        </UserObject>
        <UserObject label="Title" lucidchartObjectId="8SIq4l0T7j84" id="FEUUiq3USUO1p5YkliIN-152">
          <mxCell style="html=1;overflow=block;blockSpacing=1;whiteSpace=wrap;;whiteSpace=wrap;fontSize=16.7;fontColor=#333333;spacing=9;strokeColor=#5e5e5e;strokeOpacity=100;rounded=1;absoluteArcSize=1;arcSize=9;strokeWidth=2.3;" vertex="1" parent="1">
            <mxGeometry x="1635" y="-300" width="120" height="45" as="geometry" />
          </mxCell>
        </UserObject>
        <UserObject label="Test note" lucidchartObjectId="tTIqfgRsAI3f" id="FEUUiq3USUO1p5YkliIN-153">
          <mxCell style="html=1;overflow=block;blockSpacing=1;whiteSpace=wrap;;whiteSpace=wrap;fontSize=16.7;fontColor=#333333;spacing=9;strokeColor=#5e5e5e;strokeOpacity=100;rounded=1;absoluteArcSize=1;arcSize=9;strokeWidth=2.3;" vertex="1" parent="1">
            <mxGeometry x="1770" y="-300" width="120" height="45" as="geometry" />
          </mxCell>
        </UserObject>
        <UserObject label="" lucidchartObjectId="ETIqiWUAqCY5" id="FEUUiq3USUO1p5YkliIN-154">
          <mxCell style="html=1;overflow=block;blockSpacing=1;whiteSpace=wrap;;whiteSpace=wrap;fontSize=13;spacing=9;strokeColor=#5e5e5e;strokeOpacity=100;rounded=1;absoluteArcSize=1;arcSize=9;strokeWidth=2.3;" vertex="1" parent="1">
            <mxGeometry x="1620" y="-225" width="285" height="75" as="geometry" />
          </mxCell>
        </UserObject>
        <UserObject label="Field 2" lucidchartObjectId="ETIqhFL-e.r7" id="FEUUiq3USUO1p5YkliIN-155">
          <mxCell style="html=1;overflow=block;blockSpacing=1;whiteSpace=wrap;;whiteSpace=wrap;fontSize=16.7;fontColor=#333333;spacing=9;strokeColor=#5e5e5e;strokeOpacity=100;rounded=1;absoluteArcSize=1;arcSize=9;strokeWidth=2.3;" vertex="1" parent="1">
            <mxGeometry x="1635" y="-210" width="120" height="45" as="geometry" />
          </mxCell>
        </UserObject>
        <UserObject label="Value 2" lucidchartObjectId="ETIq~WkDuuwT" id="FEUUiq3USUO1p5YkliIN-156">
          <mxCell style="html=1;overflow=block;blockSpacing=1;whiteSpace=wrap;;whiteSpace=wrap;fontSize=16.7;fontColor=#333333;spacing=9;strokeColor=#5e5e5e;strokeOpacity=100;rounded=1;absoluteArcSize=1;arcSize=9;strokeWidth=2.3;" vertex="1" parent="1">
            <mxGeometry x="1770" y="-210" width="120" height="45" as="geometry" />
          </mxCell>
        </UserObject>
        <UserObject label="" lucidchartObjectId="ITIqLfx8_5xD" id="FEUUiq3USUO1p5YkliIN-157">
          <mxCell style="html=1;overflow=block;blockSpacing=1;whiteSpace=wrap;;whiteSpace=wrap;fontSize=13;spacing=9;strokeColor=#5e5e5e;strokeOpacity=100;rounded=1;absoluteArcSize=1;arcSize=9;strokeWidth=2.3;" vertex="1" parent="1">
            <mxGeometry x="1620" y="-135" width="285" height="75" as="geometry" />
          </mxCell>
        </UserObject>
        <UserObject label="Field 3" lucidchartObjectId="ITIq5LJrwGgR" id="FEUUiq3USUO1p5YkliIN-158">
          <mxCell style="html=1;overflow=block;blockSpacing=1;whiteSpace=wrap;;whiteSpace=wrap;fontSize=16.7;fontColor=#333333;spacing=9;strokeColor=#5e5e5e;strokeOpacity=100;rounded=1;absoluteArcSize=1;arcSize=9;strokeWidth=2.3;" vertex="1" parent="1">
            <mxGeometry x="1635" y="-120" width="120" height="45" as="geometry" />
          </mxCell>
        </UserObject>
        <UserObject label="Value 3" lucidchartObjectId="ITIq6kOWOqnD" id="FEUUiq3USUO1p5YkliIN-159">
          <mxCell style="html=1;overflow=block;blockSpacing=1;whiteSpace=wrap;;whiteSpace=wrap;fontSize=16.7;fontColor=#333333;spacing=9;strokeColor=#5e5e5e;strokeOpacity=100;rounded=1;absoluteArcSize=1;arcSize=9;strokeWidth=2.3;" vertex="1" parent="1">
            <mxGeometry x="1770" y="-120" width="120" height="45" as="geometry" />
          </mxCell>
        </UserObject>
        <UserObject label="" lucidchartObjectId="8TIqcVxO-mso" id="FEUUiq3USUO1p5YkliIN-160">
          <mxCell style="html=1;overflow=block;blockSpacing=1;whiteSpace=wrap;;whiteSpace=wrap;fontSize=13;spacing=9;strokeColor=#5e5e5e;strokeOpacity=100;rounded=1;absoluteArcSize=1;arcSize=9;strokeWidth=2.3;" vertex="1" parent="1">
            <mxGeometry x="1620" y="-45" width="285" height="75" as="geometry" />
          </mxCell>
        </UserObject>
        <UserObject label="Field 4" lucidchartObjectId="8TIqC6iCCslU" id="FEUUiq3USUO1p5YkliIN-161">
          <mxCell style="html=1;overflow=block;blockSpacing=1;whiteSpace=wrap;;whiteSpace=wrap;fontSize=16.7;fontColor=#333333;spacing=9;strokeColor=#5e5e5e;strokeOpacity=100;rounded=1;absoluteArcSize=1;arcSize=9;strokeWidth=2.3;" vertex="1" parent="1">
            <mxGeometry x="1635" y="-30" width="120" height="45" as="geometry" />
          </mxCell>
        </UserObject>
        <UserObject label="Value 4" lucidchartObjectId="8TIqFEs-h4l7" id="FEUUiq3USUO1p5YkliIN-162">
          <mxCell style="html=1;overflow=block;blockSpacing=1;whiteSpace=wrap;;whiteSpace=wrap;fontSize=16.7;fontColor=#333333;spacing=9;strokeColor=#5e5e5e;strokeOpacity=100;rounded=1;absoluteArcSize=1;arcSize=9;strokeWidth=2.3;" vertex="1" parent="1">
            <mxGeometry x="1770" y="-30" width="120" height="45" as="geometry" />
          </mxCell>
        </UserObject>
        <mxCell id="FEUUiq3USUO1p5YkliIN-163" value="" style="shape=singleArrow;arrowWidth=0.5;arrowSize=0.225;whiteSpace=wrap;fontSize=13;spacing=3.8;strokeColor=#5e5e5e;strokeOpacity=100;rounded=1;absoluteArcSize=1;arcSize=9;rotation=180;strokeWidth=2.3;html=1;" vertex="1" parent="1">
          <mxGeometry x="1155" y="-645" width="60" height="30" as="geometry" />
        </mxCell>
        <mxCell id="FEUUiq3USUO1p5YkliIN-164" value="" style="shape=singleArrow;arrowWidth=0.5;arrowSize=0.225;whiteSpace=wrap;fontSize=13;spacing=3.8;strokeColor=#5e5e5e;strokeOpacity=100;rounded=1;absoluteArcSize=1;arcSize=9;rotation=180;strokeWidth=2.3;html=1;" vertex="1" parent="1">
          <mxGeometry x="1605" y="-375" width="60" height="30" as="geometry" />
        </mxCell>
        <UserObject label="Submit" lucidchartObjectId="SWIqaM8mSJSL" id="FEUUiq3USUO1p5YkliIN-165">
          <mxCell style="html=1;overflow=block;blockSpacing=1;whiteSpace=wrap;;whiteSpace=wrap;fontSize=16.7;fontColor=#333333;spacing=9;strokeColor=#5e5e5e;strokeOpacity=100;rounded=1;absoluteArcSize=1;arcSize=9;strokeWidth=2.3;" vertex="1" parent="1">
            <mxGeometry x="1755" y="-375" width="150" height="45" as="geometry" />
          </mxCell>
        </UserObject>
        <UserObject label="" lucidchartObjectId="JYIqImSIxyel" id="FEUUiq3USUO1p5YkliIN-166">
          <mxCell style="html=1;overflow=block;blockSpacing=1;whiteSpace=wrap;;whiteSpace=wrap;fontSize=13;spacing=3.8;strokeColor=#5e5e5e;strokeOpacity=100;rounded=1;absoluteArcSize=1;arcSize=9;strokeWidth=2.3;" vertex="1" parent="1">
            <mxGeometry x="2080" y="-1005" width="330" height="435" as="geometry" />
          </mxCell>
        </UserObject>
        <UserObject label="" lucidchartObjectId="JYIqmsGyTYTR" id="FEUUiq3USUO1p5YkliIN-167">
          <mxCell style="html=1;overflow=block;blockSpacing=1;whiteSpace=wrap;;whiteSpace=wrap;fontSize=13;spacing=9;strokeColor=#5e5e5e;strokeOpacity=100;rounded=1;absoluteArcSize=1;arcSize=9;strokeWidth=2.3;" vertex="1" parent="1">
            <mxGeometry x="2110" y="-930" width="285" height="75" as="geometry" />
          </mxCell>
        </UserObject>
        <UserObject label="Name" lucidchartObjectId="JYIq-rKO5udx" id="FEUUiq3USUO1p5YkliIN-168">
          <mxCell style="html=1;overflow=block;blockSpacing=1;whiteSpace=wrap;;whiteSpace=wrap;fontSize=16.7;fontColor=#333333;spacing=9;strokeColor=#5e5e5e;strokeOpacity=100;rounded=1;absoluteArcSize=1;arcSize=9;strokeWidth=2.3;" vertex="1" parent="1">
            <mxGeometry x="2125" y="-915" width="120" height="45" as="geometry" />
          </mxCell>
        </UserObject>
        <UserObject label="John Doe" lucidchartObjectId="JYIq1clX5wpW" id="FEUUiq3USUO1p5YkliIN-169">
          <mxCell style="html=1;overflow=block;blockSpacing=1;whiteSpace=wrap;;whiteSpace=wrap;fontSize=16.7;fontColor=#333333;spacing=9;strokeColor=#5e5e5e;strokeOpacity=100;rounded=1;absoluteArcSize=1;arcSize=9;strokeWidth=2.3;" vertex="1" parent="1">
            <mxGeometry x="2260" y="-915" width="120" height="45" as="geometry" />
          </mxCell>
        </UserObject>
        <UserObject label="" lucidchartObjectId="JYIqQUZs7ALy" id="FEUUiq3USUO1p5YkliIN-170">
          <mxCell style="html=1;overflow=block;blockSpacing=1;whiteSpace=wrap;;whiteSpace=wrap;fontSize=13;spacing=9;strokeColor=#5e5e5e;strokeOpacity=100;rounded=1;absoluteArcSize=1;arcSize=9;strokeWidth=2.3;" vertex="1" parent="1">
            <mxGeometry x="2110" y="-840" width="285" height="75" as="geometry" />
          </mxCell>
        </UserObject>
        <UserObject label="Gender" lucidchartObjectId="JYIqrLPb~m38" id="FEUUiq3USUO1p5YkliIN-171">
          <mxCell style="html=1;overflow=block;blockSpacing=1;whiteSpace=wrap;;whiteSpace=wrap;fontSize=16.7;fontColor=#333333;spacing=9;strokeColor=#5e5e5e;strokeOpacity=100;rounded=1;absoluteArcSize=1;arcSize=9;strokeWidth=2.3;" vertex="1" parent="1">
            <mxGeometry x="2125" y="-825" width="120" height="45" as="geometry" />
          </mxCell>
        </UserObject>
        <UserObject label="Male" lucidchartObjectId="JYIqg7qXGhC_" id="FEUUiq3USUO1p5YkliIN-172">
          <mxCell style="html=1;overflow=block;blockSpacing=1;whiteSpace=wrap;;whiteSpace=wrap;fontSize=16.7;fontColor=#333333;spacing=9;strokeColor=#5e5e5e;strokeOpacity=100;rounded=1;absoluteArcSize=1;arcSize=9;strokeWidth=2.3;" vertex="1" parent="1">
            <mxGeometry x="2260" y="-825" width="120" height="45" as="geometry" />
          </mxCell>
        </UserObject>
        <UserObject label="" lucidchartObjectId="JYIqgXZHd~-3" id="FEUUiq3USUO1p5YkliIN-173">
          <mxCell style="html=1;overflow=block;blockSpacing=1;whiteSpace=wrap;;whiteSpace=wrap;fontSize=13;spacing=9;strokeColor=#5e5e5e;strokeOpacity=100;rounded=1;absoluteArcSize=1;arcSize=9;strokeWidth=2.3;" vertex="1" parent="1">
            <mxGeometry x="2110" y="-750" width="285" height="75" as="geometry" />
          </mxCell>
        </UserObject>
        <UserObject label="&lt;div style=&quot;font-size: 14px&quot; align=&quot;center&quot;&gt;&lt;font style=&quot;font-size: 14px&quot;&gt;Locations of residence&lt;/font&gt;&lt;/div&gt;" lucidchartObjectId="JYIq63LU4q4L" id="FEUUiq3USUO1p5YkliIN-174">
          <mxCell style="html=1;overflow=block;blockSpacing=1;whiteSpace=wrap;;whiteSpace=wrap;fontSize=16.7;fontColor=#333333;spacing=9;strokeColor=#5e5e5e;strokeOpacity=100;rounded=1;absoluteArcSize=1;arcSize=9;strokeWidth=2;align=center;" vertex="1" parent="1">
            <mxGeometry x="2125" y="-735" width="120" height="45" as="geometry" />
          </mxCell>
        </UserObject>
        <UserObject label="&lt;font style=&quot;font-size: 14px&quot;&gt;&lt;font style=&quot;font-size: 14px&quot;&gt;Redlands Mall, ...&lt;/font&gt;&lt;br&gt;&lt;/font&gt;" lucidchartObjectId="JYIqBV~_6mQu" id="FEUUiq3USUO1p5YkliIN-175">
          <mxCell style="html=1;overflow=block;blockSpacing=1;whiteSpace=wrap;;whiteSpace=wrap;fontSize=16.7;fontColor=#333333;spacing=9;strokeColor=#5e5e5e;strokeOpacity=100;rounded=1;absoluteArcSize=1;arcSize=9;strokeWidth=2.3;" vertex="1" parent="1">
            <mxGeometry x="2260" y="-735" width="120" height="45" as="geometry" />
          </mxCell>
        </UserObject>
        <UserObject label="" lucidchartObjectId="JYIqWBAA1-ck" id="FEUUiq3USUO1p5YkliIN-176">
          <mxCell style="html=1;overflow=block;blockSpacing=1;whiteSpace=wrap;;whiteSpace=wrap;fontSize=13;spacing=9;strokeColor=#5e5e5e;strokeOpacity=100;rounded=1;absoluteArcSize=1;arcSize=9;strokeWidth=2.3;" vertex="1" parent="1">
            <mxGeometry x="2110" y="-660" width="285" height="75" as="geometry" />
          </mxCell>
        </UserObject>
        <UserObject label="Psychiatric disorders" lucidchartObjectId="JYIqxw.okeaf" id="FEUUiq3USUO1p5YkliIN-177">
          <mxCell style="html=1;overflow=block;blockSpacing=1;whiteSpace=wrap;;whiteSpace=wrap;fontSize=16.7;fontColor=#333333;spacing=9;strokeColor=#5e5e5e;strokeOpacity=100;rounded=1;absoluteArcSize=1;arcSize=9;strokeWidth=2.3;" vertex="1" parent="1">
            <mxGeometry x="2125" y="-645" width="120" height="45" as="geometry" />
          </mxCell>
        </UserObject>
        <UserObject label="Schizophrenia" lucidchartObjectId="JYIq4gRYHf0a" id="FEUUiq3USUO1p5YkliIN-178">
          <mxCell style="html=1;overflow=block;blockSpacing=1;whiteSpace=wrap;;whiteSpace=wrap;fontSize=16.7;fontColor=#333333;spacing=9;strokeColor=#5e5e5e;strokeOpacity=100;rounded=1;absoluteArcSize=1;arcSize=9;strokeWidth=2.3;" vertex="1" parent="1">
            <mxGeometry x="2260" y="-645" width="120" height="45" as="geometry" />
          </mxCell>
        </UserObject>
        <mxCell id="FEUUiq3USUO1p5YkliIN-179" value="" style="shape=singleArrow;arrowWidth=0.5;arrowSize=0.225;whiteSpace=wrap;fontSize=13;spacing=3.8;strokeColor=#5e5e5e;strokeOpacity=100;rounded=1;absoluteArcSize=1;arcSize=9;rotation=180;strokeWidth=2.3;html=1;" vertex="1" parent="1">
          <mxGeometry x="2095" y="-990" width="60" height="30" as="geometry" />
        </mxCell>
        <UserObject label="Filter" lucidchartObjectId="JYIqrRlLzmnx" id="FEUUiq3USUO1p5YkliIN-180">
          <mxCell style="html=1;overflow=block;blockSpacing=1;whiteSpace=wrap;;whiteSpace=wrap;fontSize=16.7;fontColor=#333333;spacing=9;strokeColor=#5e5e5e;strokeOpacity=100;rounded=1;absoluteArcSize=1;arcSize=9;strokeWidth=2.3;" vertex="1" parent="1">
            <mxGeometry x="2245" y="-990" width="150" height="45" as="geometry" />
          </mxCell>
        </UserObject>
        <UserObject label="" lucidchartObjectId="P0Iq2~FqOxFh" id="FEUUiq3USUO1p5YkliIN-182">
          <mxCell style="html=1;jettySize=18;whiteSpace=wrap;fontSize=13;strokeColor=#5E5E5E;strokeWidth=1.5;rounded=1;arcSize=12;edgeStyle=orthogonalEdgeStyle;startArrow=none;;endArrow=block;endFill=1;;exitX=1.004;exitY=0.5;exitPerimeter=0;entryX=-0.003;entryY=0.5;entryPerimeter=0;" edge="1" parent="1" source="FEUUiq3USUO1p5YkliIN-149" target="FEUUiq3USUO1p5YkliIN-150">
            <mxGeometry width="100" height="100" relative="1" as="geometry">
              <Array as="points" />
            </mxGeometry>
          </mxCell>
        </UserObject>
        <UserObject label="" lucidchartObjectId="e3Iq8I_mUfGt" id="FEUUiq3USUO1p5YkliIN-184">
          <mxCell style="html=1;overflow=block;blockSpacing=1;whiteSpace=wrap;;whiteSpace=wrap;fontSize=13;spacing=3.8;strokeColor=#5e5e5e;strokeOpacity=100;rounded=1;absoluteArcSize=1;arcSize=9;strokeWidth=2.3;" vertex="1" parent="1">
            <mxGeometry x="1591" y="-900" width="330" height="435" as="geometry" />
          </mxCell>
        </UserObject>
        <mxCell id="FEUUiq3USUO1p5YkliIN-200" style="edgeStyle=orthogonalEdgeStyle;rounded=0;orthogonalLoop=1;jettySize=auto;html=1;exitX=1;exitY=0.5;exitDx=0;exitDy=0;entryX=0;entryY=0.5;entryDx=0;entryDy=0;fontSize=14;" edge="1" parent="1" source="FEUUiq3USUO1p5YkliIN-185" target="FEUUiq3USUO1p5YkliIN-166">
          <mxGeometry relative="1" as="geometry" />
        </mxCell>
        <UserObject label="" lucidchartObjectId="e3IqJPeS-deE" id="FEUUiq3USUO1p5YkliIN-185">
          <mxCell style="html=1;overflow=block;blockSpacing=1;whiteSpace=wrap;;whiteSpace=wrap;fontSize=13;spacing=9;strokeColor=#5e5e5e;strokeOpacity=100;rounded=1;absoluteArcSize=1;arcSize=9;strokeWidth=2.3;" vertex="1" parent="1">
            <mxGeometry x="1621" y="-825" width="285" height="75" as="geometry" />
          </mxCell>
        </UserObject>
        <UserObject label="Title" lucidchartObjectId="e3Iqku~zvZEh" id="FEUUiq3USUO1p5YkliIN-186">
          <mxCell style="html=1;overflow=block;blockSpacing=1;whiteSpace=wrap;;whiteSpace=wrap;fontSize=16.7;fontColor=#333333;spacing=9;strokeColor=#5e5e5e;strokeOpacity=100;rounded=1;absoluteArcSize=1;arcSize=9;strokeWidth=2.3;" vertex="1" parent="1">
            <mxGeometry x="1636" y="-810" width="120" height="45" as="geometry" />
          </mxCell>
        </UserObject>
        <UserObject label="Test note" lucidchartObjectId="e3IqkLCIElOL" id="FEUUiq3USUO1p5YkliIN-187">
          <mxCell style="html=1;overflow=block;blockSpacing=1;whiteSpace=wrap;;whiteSpace=wrap;fontSize=16.7;fontColor=#333333;spacing=9;strokeColor=#5e5e5e;strokeOpacity=100;rounded=1;absoluteArcSize=1;arcSize=9;strokeWidth=2.3;" vertex="1" parent="1">
            <mxGeometry x="1771" y="-810" width="120" height="45" as="geometry" />
          </mxCell>
        </UserObject>
        <UserObject label="" lucidchartObjectId="e3Iq-X9TQTS." id="FEUUiq3USUO1p5YkliIN-188">
          <mxCell style="html=1;overflow=block;blockSpacing=1;whiteSpace=wrap;;whiteSpace=wrap;fontSize=13;spacing=9;strokeColor=#5e5e5e;strokeOpacity=100;rounded=1;absoluteArcSize=1;arcSize=9;strokeWidth=2.3;" vertex="1" parent="1">
            <mxGeometry x="1621" y="-735" width="285" height="75" as="geometry" />
          </mxCell>
        </UserObject>
        <UserObject label="Field 2" lucidchartObjectId="e3Iq2TEdJb28" id="FEUUiq3USUO1p5YkliIN-189">
          <mxCell style="html=1;overflow=block;blockSpacing=1;whiteSpace=wrap;;whiteSpace=wrap;fontSize=16.7;fontColor=#333333;spacing=9;strokeColor=#5e5e5e;strokeOpacity=100;rounded=1;absoluteArcSize=1;arcSize=9;strokeWidth=2.3;" vertex="1" parent="1">
            <mxGeometry x="1636" y="-720" width="120" height="45" as="geometry" />
          </mxCell>
        </UserObject>
        <UserObject label="Value 2" lucidchartObjectId="e3IqHP9_b.FM" id="FEUUiq3USUO1p5YkliIN-190">
          <mxCell style="html=1;overflow=block;blockSpacing=1;whiteSpace=wrap;;whiteSpace=wrap;fontSize=16.7;fontColor=#333333;spacing=9;strokeColor=#5e5e5e;strokeOpacity=100;rounded=1;absoluteArcSize=1;arcSize=9;strokeWidth=2.3;" vertex="1" parent="1">
            <mxGeometry x="1771" y="-720" width="120" height="45" as="geometry" />
          </mxCell>
        </UserObject>
        <UserObject label="" lucidchartObjectId="e3IqvEsaxpAm" id="FEUUiq3USUO1p5YkliIN-191">
          <mxCell style="html=1;overflow=block;blockSpacing=1;whiteSpace=wrap;;whiteSpace=wrap;fontSize=13;spacing=9;strokeColor=#5e5e5e;strokeOpacity=100;rounded=1;absoluteArcSize=1;arcSize=9;strokeWidth=2.3;" vertex="1" parent="1">
            <mxGeometry x="1621" y="-645" width="285" height="75" as="geometry" />
          </mxCell>
        </UserObject>
        <UserObject label="Field 3" lucidchartObjectId="e3IqMT8-9cf5" id="FEUUiq3USUO1p5YkliIN-192">
          <mxCell style="html=1;overflow=block;blockSpacing=1;whiteSpace=wrap;;whiteSpace=wrap;fontSize=16.7;fontColor=#333333;spacing=9;strokeColor=#5e5e5e;strokeOpacity=100;rounded=1;absoluteArcSize=1;arcSize=9;strokeWidth=2.3;" vertex="1" parent="1">
            <mxGeometry x="1636" y="-630" width="120" height="45" as="geometry" />
          </mxCell>
        </UserObject>
        <UserObject label="Value 3" lucidchartObjectId="e3Iqp-~qEavo" id="FEUUiq3USUO1p5YkliIN-193">
          <mxCell style="html=1;overflow=block;blockSpacing=1;whiteSpace=wrap;;whiteSpace=wrap;fontSize=16.7;fontColor=#333333;spacing=9;strokeColor=#5e5e5e;strokeOpacity=100;rounded=1;absoluteArcSize=1;arcSize=9;strokeWidth=2.3;" vertex="1" parent="1">
            <mxGeometry x="1771" y="-630" width="120" height="45" as="geometry" />
          </mxCell>
        </UserObject>
        <UserObject label="" lucidchartObjectId="e3Iq-xhDcQ62" id="FEUUiq3USUO1p5YkliIN-194">
          <mxCell style="html=1;overflow=block;blockSpacing=1;whiteSpace=wrap;;whiteSpace=wrap;fontSize=13;spacing=9;strokeColor=#5e5e5e;strokeOpacity=100;rounded=1;absoluteArcSize=1;arcSize=9;strokeWidth=2.3;" vertex="1" parent="1">
            <mxGeometry x="1621" y="-555" width="285" height="75" as="geometry" />
          </mxCell>
        </UserObject>
        <UserObject label="Field 4" lucidchartObjectId="e3Iqs8mC.Bks" id="FEUUiq3USUO1p5YkliIN-195">
          <mxCell style="html=1;overflow=block;blockSpacing=1;whiteSpace=wrap;;whiteSpace=wrap;fontSize=16.7;fontColor=#333333;spacing=9;strokeColor=#5e5e5e;strokeOpacity=100;rounded=1;absoluteArcSize=1;arcSize=9;strokeWidth=2.3;" vertex="1" parent="1">
            <mxGeometry x="1636" y="-540" width="120" height="45" as="geometry" />
          </mxCell>
        </UserObject>
        <UserObject label="Value 4" lucidchartObjectId="e3Iqq5lsQZ12" id="FEUUiq3USUO1p5YkliIN-196">
          <mxCell style="html=1;overflow=block;blockSpacing=1;whiteSpace=wrap;;whiteSpace=wrap;fontSize=16.7;fontColor=#333333;spacing=9;strokeColor=#5e5e5e;strokeOpacity=100;rounded=1;absoluteArcSize=1;arcSize=9;strokeWidth=2.3;" vertex="1" parent="1">
            <mxGeometry x="1771" y="-540" width="120" height="45" as="geometry" />
          </mxCell>
        </UserObject>
        <mxCell id="FEUUiq3USUO1p5YkliIN-197" value="" style="shape=singleArrow;arrowWidth=0.5;arrowSize=0.225;whiteSpace=wrap;fontSize=13;spacing=3.8;strokeColor=#5e5e5e;strokeOpacity=100;rounded=1;absoluteArcSize=1;arcSize=9;rotation=180;strokeWidth=2.3;html=1;" vertex="1" parent="1">
          <mxGeometry x="1606" y="-885" width="60" height="30" as="geometry" />
        </mxCell>
        <UserObject label="" lucidchartObjectId="8RIq1ZBvP-~G" id="FEUUiq3USUO1p5YkliIN-207">
          <mxCell style="html=1;overflow=block;blockSpacing=1;whiteSpace=wrap;;whiteSpace=wrap;fontSize=13;spacing=3.8;strokeColor=#5e5e5e;strokeOpacity=100;rounded=1;absoluteArcSize=1;arcSize=9;strokeWidth=2.3;" vertex="1" parent="1">
            <mxGeometry x="645" y="-1610" width="330" height="435" as="geometry" />
          </mxCell>
        </UserObject>
        <mxCell id="FEUUiq3USUO1p5YkliIN-244" style="edgeStyle=orthogonalEdgeStyle;rounded=0;orthogonalLoop=1;jettySize=auto;html=1;exitX=1;exitY=0.5;exitDx=0;exitDy=0;entryX=0;entryY=0.5;entryDx=0;entryDy=0;fontSize=14;" edge="1" parent="1" source="FEUUiq3USUO1p5YkliIN-208" target="FEUUiq3USUO1p5YkliIN-240">
          <mxGeometry relative="1" as="geometry" />
        </mxCell>
        <UserObject label="My Info" lucidchartObjectId="cSIqgZA5jLlp" id="FEUUiq3USUO1p5YkliIN-208">
          <mxCell style="html=1;overflow=block;blockSpacing=1;whiteSpace=wrap;;whiteSpace=wrap;fontSize=16.7;fontColor=#333333;spacing=9;strokeColor=#5e5e5e;strokeOpacity=100;rounded=1;absoluteArcSize=1;arcSize=9;strokeWidth=2.3;" vertex="1" parent="1">
            <mxGeometry x="660" y="-1550" width="300" height="165" as="geometry" />
          </mxCell>
        </UserObject>
        <UserObject label="Sign Out" lucidchartObjectId="hSIql9Fksf9N" id="FEUUiq3USUO1p5YkliIN-209">
          <mxCell style="html=1;overflow=block;blockSpacing=1;whiteSpace=wrap;;whiteSpace=wrap;fontSize=16.7;fontColor=#333333;spacing=9;strokeColor=#5e5e5e;strokeOpacity=100;rounded=1;absoluteArcSize=1;arcSize=9;strokeWidth=2.3;" vertex="1" parent="1">
            <mxGeometry x="660" y="-1370" width="300" height="180" as="geometry" />
          </mxCell>
        </UserObject>
        <mxCell id="FEUUiq3USUO1p5YkliIN-210" value="" style="shape=singleArrow;arrowWidth=0.5;arrowSize=0.225;whiteSpace=wrap;fontSize=13;spacing=3.8;strokeColor=#5e5e5e;strokeOpacity=100;rounded=1;absoluteArcSize=1;arcSize=9;rotation=180;strokeWidth=2.3;html=1;" vertex="1" parent="1">
          <mxGeometry x="660" y="-1595" width="60" height="30" as="geometry" />
        </mxCell>
        <UserObject label="" lucidchartObjectId="ESIq_eZUDLwN" id="FEUUiq3USUO1p5YkliIN-211">
          <mxCell style="html=1;overflow=block;blockSpacing=1;whiteSpace=wrap;;whiteSpace=wrap;fontSize=13;spacing=3.8;strokeColor=#5e5e5e;strokeOpacity=100;rounded=1;absoluteArcSize=1;arcSize=9;strokeWidth=2.3;" vertex="1" parent="1">
            <mxGeometry x="1559" y="-1570" width="330" height="435" as="geometry" />
          </mxCell>
        </UserObject>
        <UserObject label="" lucidchartObjectId="ESIqFr9YmMY0" id="FEUUiq3USUO1p5YkliIN-212">
          <mxCell style="html=1;overflow=block;blockSpacing=1;whiteSpace=wrap;;whiteSpace=wrap;fontSize=13;spacing=9;strokeColor=#5e5e5e;strokeOpacity=100;rounded=1;absoluteArcSize=1;arcSize=9;strokeWidth=2.3;" vertex="1" parent="1">
            <mxGeometry x="1589" y="-1495" width="285" height="75" as="geometry" />
          </mxCell>
        </UserObject>
        <UserObject label="Title" lucidchartObjectId="8SIq4l0T7j84" id="FEUUiq3USUO1p5YkliIN-213">
          <mxCell style="html=1;overflow=block;blockSpacing=1;whiteSpace=wrap;;whiteSpace=wrap;fontSize=16.7;fontColor=#333333;spacing=9;strokeColor=#5e5e5e;strokeOpacity=100;rounded=1;absoluteArcSize=1;arcSize=9;strokeWidth=2.3;" vertex="1" parent="1">
            <mxGeometry x="1604" y="-1480" width="120" height="45" as="geometry" />
          </mxCell>
        </UserObject>
        <UserObject label="Test note" lucidchartObjectId="tTIqfgRsAI3f" id="FEUUiq3USUO1p5YkliIN-214">
          <mxCell style="html=1;overflow=block;blockSpacing=1;whiteSpace=wrap;;whiteSpace=wrap;fontSize=16.7;fontColor=#333333;spacing=9;strokeColor=#5e5e5e;strokeOpacity=100;rounded=1;absoluteArcSize=1;arcSize=9;strokeWidth=2.3;" vertex="1" parent="1">
            <mxGeometry x="1739" y="-1480" width="120" height="45" as="geometry" />
          </mxCell>
        </UserObject>
        <UserObject label="" lucidchartObjectId="ETIqiWUAqCY5" id="FEUUiq3USUO1p5YkliIN-215">
          <mxCell style="html=1;overflow=block;blockSpacing=1;whiteSpace=wrap;;whiteSpace=wrap;fontSize=13;spacing=9;strokeColor=#5e5e5e;strokeOpacity=100;rounded=1;absoluteArcSize=1;arcSize=9;strokeWidth=2.3;" vertex="1" parent="1">
            <mxGeometry x="1589" y="-1405" width="285" height="75" as="geometry" />
          </mxCell>
        </UserObject>
        <UserObject label="Field 2" lucidchartObjectId="ETIqhFL-e.r7" id="FEUUiq3USUO1p5YkliIN-216">
          <mxCell style="html=1;overflow=block;blockSpacing=1;whiteSpace=wrap;;whiteSpace=wrap;fontSize=16.7;fontColor=#333333;spacing=9;strokeColor=#5e5e5e;strokeOpacity=100;rounded=1;absoluteArcSize=1;arcSize=9;strokeWidth=2.3;" vertex="1" parent="1">
            <mxGeometry x="1604" y="-1390" width="120" height="45" as="geometry" />
          </mxCell>
        </UserObject>
        <UserObject label="Value 2" lucidchartObjectId="ETIq~WkDuuwT" id="FEUUiq3USUO1p5YkliIN-217">
          <mxCell style="html=1;overflow=block;blockSpacing=1;whiteSpace=wrap;;whiteSpace=wrap;fontSize=16.7;fontColor=#333333;spacing=9;strokeColor=#5e5e5e;strokeOpacity=100;rounded=1;absoluteArcSize=1;arcSize=9;strokeWidth=2.3;" vertex="1" parent="1">
            <mxGeometry x="1739" y="-1390" width="120" height="45" as="geometry" />
          </mxCell>
        </UserObject>
        <UserObject label="" lucidchartObjectId="ITIqLfx8_5xD" id="FEUUiq3USUO1p5YkliIN-218">
          <mxCell style="html=1;overflow=block;blockSpacing=1;whiteSpace=wrap;;whiteSpace=wrap;fontSize=13;spacing=9;strokeColor=#5e5e5e;strokeOpacity=100;rounded=1;absoluteArcSize=1;arcSize=9;strokeWidth=2.3;" vertex="1" parent="1">
            <mxGeometry x="1589" y="-1315" width="285" height="75" as="geometry" />
          </mxCell>
        </UserObject>
        <UserObject label="Field 3" lucidchartObjectId="ITIq5LJrwGgR" id="FEUUiq3USUO1p5YkliIN-219">
          <mxCell style="html=1;overflow=block;blockSpacing=1;whiteSpace=wrap;;whiteSpace=wrap;fontSize=16.7;fontColor=#333333;spacing=9;strokeColor=#5e5e5e;strokeOpacity=100;rounded=1;absoluteArcSize=1;arcSize=9;strokeWidth=2.3;" vertex="1" parent="1">
            <mxGeometry x="1604" y="-1300" width="120" height="45" as="geometry" />
          </mxCell>
        </UserObject>
        <UserObject label="Value 3" lucidchartObjectId="ITIq6kOWOqnD" id="FEUUiq3USUO1p5YkliIN-220">
          <mxCell style="html=1;overflow=block;blockSpacing=1;whiteSpace=wrap;;whiteSpace=wrap;fontSize=16.7;fontColor=#333333;spacing=9;strokeColor=#5e5e5e;strokeOpacity=100;rounded=1;absoluteArcSize=1;arcSize=9;strokeWidth=2.3;" vertex="1" parent="1">
            <mxGeometry x="1739" y="-1300" width="120" height="45" as="geometry" />
          </mxCell>
        </UserObject>
        <UserObject label="" lucidchartObjectId="8TIqcVxO-mso" id="FEUUiq3USUO1p5YkliIN-221">
          <mxCell style="html=1;overflow=block;blockSpacing=1;whiteSpace=wrap;;whiteSpace=wrap;fontSize=13;spacing=9;strokeColor=#5e5e5e;strokeOpacity=100;rounded=1;absoluteArcSize=1;arcSize=9;strokeWidth=2.3;" vertex="1" parent="1">
            <mxGeometry x="1589" y="-1225" width="285" height="75" as="geometry" />
          </mxCell>
        </UserObject>
        <UserObject label="Field 4" lucidchartObjectId="8TIqC6iCCslU" id="FEUUiq3USUO1p5YkliIN-222">
          <mxCell style="html=1;overflow=block;blockSpacing=1;whiteSpace=wrap;;whiteSpace=wrap;fontSize=16.7;fontColor=#333333;spacing=9;strokeColor=#5e5e5e;strokeOpacity=100;rounded=1;absoluteArcSize=1;arcSize=9;strokeWidth=2.3;" vertex="1" parent="1">
            <mxGeometry x="1604" y="-1210" width="120" height="45" as="geometry" />
          </mxCell>
        </UserObject>
        <UserObject label="Value 4" lucidchartObjectId="8TIqFEs-h4l7" id="FEUUiq3USUO1p5YkliIN-223">
          <mxCell style="html=1;overflow=block;blockSpacing=1;whiteSpace=wrap;;whiteSpace=wrap;fontSize=16.7;fontColor=#333333;spacing=9;strokeColor=#5e5e5e;strokeOpacity=100;rounded=1;absoluteArcSize=1;arcSize=9;strokeWidth=2.3;" vertex="1" parent="1">
            <mxGeometry x="1739" y="-1210" width="120" height="45" as="geometry" />
          </mxCell>
        </UserObject>
        <mxCell id="FEUUiq3USUO1p5YkliIN-224" value="" style="shape=singleArrow;arrowWidth=0.5;arrowSize=0.225;whiteSpace=wrap;fontSize=13;spacing=3.8;strokeColor=#5e5e5e;strokeOpacity=100;rounded=1;absoluteArcSize=1;arcSize=9;rotation=180;strokeWidth=2.3;html=1;" vertex="1" parent="1">
          <mxGeometry x="1574" y="-1555" width="60" height="30" as="geometry" />
        </mxCell>
        <UserObject label="Submit" lucidchartObjectId="SWIqaM8mSJSL" id="FEUUiq3USUO1p5YkliIN-225">
          <mxCell style="html=1;overflow=block;blockSpacing=1;whiteSpace=wrap;;whiteSpace=wrap;fontSize=16.7;fontColor=#333333;spacing=9;strokeColor=#5e5e5e;strokeOpacity=100;rounded=1;absoluteArcSize=1;arcSize=9;strokeWidth=2.3;" vertex="1" parent="1">
            <mxGeometry x="1724" y="-1555" width="150" height="45" as="geometry" />
          </mxCell>
        </UserObject>
        <UserObject label="" lucidchartObjectId="e3Iq8I_mUfGt" id="FEUUiq3USUO1p5YkliIN-226">
          <mxCell style="html=1;overflow=block;blockSpacing=1;whiteSpace=wrap;;whiteSpace=wrap;fontSize=13;spacing=3.8;strokeColor=#5e5e5e;strokeOpacity=100;rounded=1;absoluteArcSize=1;arcSize=9;strokeWidth=2.3;" vertex="1" parent="1">
            <mxGeometry x="1560" y="-2080" width="330" height="435" as="geometry" />
          </mxCell>
        </UserObject>
        <UserObject label="" lucidchartObjectId="e3IqJPeS-deE" id="FEUUiq3USUO1p5YkliIN-227">
          <mxCell style="html=1;overflow=block;blockSpacing=1;whiteSpace=wrap;;whiteSpace=wrap;fontSize=13;spacing=9;strokeColor=#5e5e5e;strokeOpacity=100;rounded=1;absoluteArcSize=1;arcSize=9;strokeWidth=2.3;" vertex="1" parent="1">
            <mxGeometry x="1590" y="-2005" width="285" height="75" as="geometry" />
          </mxCell>
        </UserObject>
        <UserObject label="Title" lucidchartObjectId="e3Iqku~zvZEh" id="FEUUiq3USUO1p5YkliIN-228">
          <mxCell style="html=1;overflow=block;blockSpacing=1;whiteSpace=wrap;;whiteSpace=wrap;fontSize=16.7;fontColor=#333333;spacing=9;strokeColor=#5e5e5e;strokeOpacity=100;rounded=1;absoluteArcSize=1;arcSize=9;strokeWidth=2.3;" vertex="1" parent="1">
            <mxGeometry x="1605" y="-1990" width="120" height="45" as="geometry" />
          </mxCell>
        </UserObject>
        <UserObject label="Test note" lucidchartObjectId="e3IqkLCIElOL" id="FEUUiq3USUO1p5YkliIN-229">
          <mxCell style="html=1;overflow=block;blockSpacing=1;whiteSpace=wrap;;whiteSpace=wrap;fontSize=16.7;fontColor=#333333;spacing=9;strokeColor=#5e5e5e;strokeOpacity=100;rounded=1;absoluteArcSize=1;arcSize=9;strokeWidth=2.3;" vertex="1" parent="1">
            <mxGeometry x="1740" y="-1990" width="120" height="45" as="geometry" />
          </mxCell>
        </UserObject>
        <UserObject label="" lucidchartObjectId="e3Iq-X9TQTS." id="FEUUiq3USUO1p5YkliIN-230">
          <mxCell style="html=1;overflow=block;blockSpacing=1;whiteSpace=wrap;;whiteSpace=wrap;fontSize=13;spacing=9;strokeColor=#5e5e5e;strokeOpacity=100;rounded=1;absoluteArcSize=1;arcSize=9;strokeWidth=2.3;" vertex="1" parent="1">
            <mxGeometry x="1590" y="-1915" width="285" height="75" as="geometry" />
          </mxCell>
        </UserObject>
        <UserObject label="Field 2" lucidchartObjectId="e3Iq2TEdJb28" id="FEUUiq3USUO1p5YkliIN-231">
          <mxCell style="html=1;overflow=block;blockSpacing=1;whiteSpace=wrap;;whiteSpace=wrap;fontSize=16.7;fontColor=#333333;spacing=9;strokeColor=#5e5e5e;strokeOpacity=100;rounded=1;absoluteArcSize=1;arcSize=9;strokeWidth=2.3;" vertex="1" parent="1">
            <mxGeometry x="1605" y="-1900" width="120" height="45" as="geometry" />
          </mxCell>
        </UserObject>
        <UserObject label="Value 2" lucidchartObjectId="e3IqHP9_b.FM" id="FEUUiq3USUO1p5YkliIN-232">
          <mxCell style="html=1;overflow=block;blockSpacing=1;whiteSpace=wrap;;whiteSpace=wrap;fontSize=16.7;fontColor=#333333;spacing=9;strokeColor=#5e5e5e;strokeOpacity=100;rounded=1;absoluteArcSize=1;arcSize=9;strokeWidth=2.3;" vertex="1" parent="1">
            <mxGeometry x="1740" y="-1900" width="120" height="45" as="geometry" />
          </mxCell>
        </UserObject>
        <UserObject label="" lucidchartObjectId="e3IqvEsaxpAm" id="FEUUiq3USUO1p5YkliIN-233">
          <mxCell style="html=1;overflow=block;blockSpacing=1;whiteSpace=wrap;;whiteSpace=wrap;fontSize=13;spacing=9;strokeColor=#5e5e5e;strokeOpacity=100;rounded=1;absoluteArcSize=1;arcSize=9;strokeWidth=2.3;" vertex="1" parent="1">
            <mxGeometry x="1590" y="-1825" width="285" height="75" as="geometry" />
          </mxCell>
        </UserObject>
        <UserObject label="Field 3" lucidchartObjectId="e3IqMT8-9cf5" id="FEUUiq3USUO1p5YkliIN-234">
          <mxCell style="html=1;overflow=block;blockSpacing=1;whiteSpace=wrap;;whiteSpace=wrap;fontSize=16.7;fontColor=#333333;spacing=9;strokeColor=#5e5e5e;strokeOpacity=100;rounded=1;absoluteArcSize=1;arcSize=9;strokeWidth=2.3;" vertex="1" parent="1">
            <mxGeometry x="1605" y="-1810" width="120" height="45" as="geometry" />
          </mxCell>
        </UserObject>
        <UserObject label="Value 3" lucidchartObjectId="e3Iqp-~qEavo" id="FEUUiq3USUO1p5YkliIN-235">
          <mxCell style="html=1;overflow=block;blockSpacing=1;whiteSpace=wrap;;whiteSpace=wrap;fontSize=16.7;fontColor=#333333;spacing=9;strokeColor=#5e5e5e;strokeOpacity=100;rounded=1;absoluteArcSize=1;arcSize=9;strokeWidth=2.3;" vertex="1" parent="1">
            <mxGeometry x="1740" y="-1810" width="120" height="45" as="geometry" />
          </mxCell>
        </UserObject>
        <UserObject label="" lucidchartObjectId="e3Iq-xhDcQ62" id="FEUUiq3USUO1p5YkliIN-236">
          <mxCell style="html=1;overflow=block;blockSpacing=1;whiteSpace=wrap;;whiteSpace=wrap;fontSize=13;spacing=9;strokeColor=#5e5e5e;strokeOpacity=100;rounded=1;absoluteArcSize=1;arcSize=9;strokeWidth=2.3;" vertex="1" parent="1">
            <mxGeometry x="1590" y="-1735" width="285" height="75" as="geometry" />
          </mxCell>
        </UserObject>
        <UserObject label="Field 4" lucidchartObjectId="e3Iqs8mC.Bks" id="FEUUiq3USUO1p5YkliIN-237">
          <mxCell style="html=1;overflow=block;blockSpacing=1;whiteSpace=wrap;;whiteSpace=wrap;fontSize=16.7;fontColor=#333333;spacing=9;strokeColor=#5e5e5e;strokeOpacity=100;rounded=1;absoluteArcSize=1;arcSize=9;strokeWidth=2.3;" vertex="1" parent="1">
            <mxGeometry x="1605" y="-1720" width="120" height="45" as="geometry" />
          </mxCell>
        </UserObject>
        <UserObject label="Value 4" lucidchartObjectId="e3Iqq5lsQZ12" id="FEUUiq3USUO1p5YkliIN-238">
          <mxCell style="html=1;overflow=block;blockSpacing=1;whiteSpace=wrap;;whiteSpace=wrap;fontSize=16.7;fontColor=#333333;spacing=9;strokeColor=#5e5e5e;strokeOpacity=100;rounded=1;absoluteArcSize=1;arcSize=9;strokeWidth=2.3;" vertex="1" parent="1">
            <mxGeometry x="1740" y="-1720" width="120" height="45" as="geometry" />
          </mxCell>
        </UserObject>
        <mxCell id="FEUUiq3USUO1p5YkliIN-239" value="" style="shape=singleArrow;arrowWidth=0.5;arrowSize=0.225;whiteSpace=wrap;fontSize=13;spacing=3.8;strokeColor=#5e5e5e;strokeOpacity=100;rounded=1;absoluteArcSize=1;arcSize=9;rotation=180;strokeWidth=2.3;html=1;" vertex="1" parent="1">
          <mxGeometry x="1575" y="-2065" width="60" height="30" as="geometry" />
        </mxCell>
        <UserObject label="" lucidchartObjectId="8RIq1ZBvP-~G" id="FEUUiq3USUO1p5YkliIN-240">
          <mxCell style="html=1;overflow=block;blockSpacing=1;whiteSpace=wrap;;whiteSpace=wrap;fontSize=13;spacing=3.8;strokeColor=#5e5e5e;strokeOpacity=100;rounded=1;absoluteArcSize=1;arcSize=9;strokeWidth=2.3;" vertex="1" parent="1">
            <mxGeometry x="1140" y="-1930" width="330" height="435" as="geometry" />
          </mxCell>
        </UserObject>
        <mxCell id="FEUUiq3USUO1p5YkliIN-246" style="edgeStyle=orthogonalEdgeStyle;rounded=0;orthogonalLoop=1;jettySize=auto;html=1;exitX=1;exitY=0.5;exitDx=0;exitDy=0;entryX=0;entryY=0.5;entryDx=0;entryDy=0;fontSize=14;" edge="1" parent="1" source="FEUUiq3USUO1p5YkliIN-241" target="FEUUiq3USUO1p5YkliIN-226">
          <mxGeometry relative="1" as="geometry" />
        </mxCell>
        <UserObject label="View My Info" lucidchartObjectId="cSIqgZA5jLlp" id="FEUUiq3USUO1p5YkliIN-241">
          <mxCell style="html=1;overflow=block;blockSpacing=1;whiteSpace=wrap;;whiteSpace=wrap;fontSize=16.7;fontColor=#333333;spacing=9;strokeColor=#5e5e5e;strokeOpacity=100;rounded=1;absoluteArcSize=1;arcSize=9;strokeWidth=2.3;" vertex="1" parent="1">
            <mxGeometry x="1155" y="-1870" width="300" height="165" as="geometry" />
          </mxCell>
        </UserObject>
        <mxCell id="FEUUiq3USUO1p5YkliIN-245" style="edgeStyle=orthogonalEdgeStyle;rounded=0;orthogonalLoop=1;jettySize=auto;html=1;exitX=1;exitY=0.5;exitDx=0;exitDy=0;entryX=0.024;entryY=0.466;entryDx=0;entryDy=0;entryPerimeter=0;fontSize=14;" edge="1" parent="1" source="FEUUiq3USUO1p5YkliIN-242" target="FEUUiq3USUO1p5YkliIN-211">
          <mxGeometry relative="1" as="geometry" />
        </mxCell>
        <UserObject label="Edit My Info" lucidchartObjectId="hSIql9Fksf9N" id="FEUUiq3USUO1p5YkliIN-242">
          <mxCell style="html=1;overflow=block;blockSpacing=1;whiteSpace=wrap;;whiteSpace=wrap;fontSize=16.7;fontColor=#333333;spacing=9;strokeColor=#5e5e5e;strokeOpacity=100;rounded=1;absoluteArcSize=1;arcSize=9;strokeWidth=2.3;" vertex="1" parent="1">
            <mxGeometry x="1155" y="-1690" width="300" height="180" as="geometry" />
          </mxCell>
        </UserObject>
        <mxCell id="FEUUiq3USUO1p5YkliIN-243" value="" style="shape=singleArrow;arrowWidth=0.5;arrowSize=0.225;whiteSpace=wrap;fontSize=13;spacing=3.8;strokeColor=#5e5e5e;strokeOpacity=100;rounded=1;absoluteArcSize=1;arcSize=9;rotation=180;strokeWidth=2.3;html=1;" vertex="1" parent="1">
          <mxGeometry x="1155" y="-1915" width="60" height="30" as="geometry" />
        </mxCell>
      </root>
    </mxGraphModel>
  </diagram>
</mxfile>
